<svg xmlns="http://www.w3.org/2000/svg" width="200.803" height="51.922" viewBox="0 0 200.803 51.922"><path fill="#0A1437" d="M73.285 6.713c1.772 0 3.312.348 4.358 1.162 1.017.755 1.627 1.917 1.627 3.66 0 2.237-1.017 4.068-3.283 4.678 2.614.465 3.66 2.121 3.66 4.619 0 2.179-.813 3.603-1.946 4.503-1.278 1.017-2.992 1.424-4.91 1.424h-7.903V6.713h8.397zm-3.835 8.193h2.15c1.627 0 2.789-.494 2.789-2.527 0-.843-.204-1.308-.494-1.569-.291-.262-.813-.349-1.453-.349H69.45v4.445zm0 8.135h2.789c.843 0 1.482-.146 1.889-.522.406-.378.638-.989.638-1.948 0-1.743-.784-2.178-2.353-2.178H69.45v4.648zM82.375 4.533h4.562v22.226h-4.562zM101.461 25.452c-1.22 1.162-2.76 1.743-4.997 1.743-2.179 0-3.69-.551-4.823-1.597-1.511-1.366-1.975-3.197-1.975-6.043 0-2.992.523-4.823 2.004-6.276 1.22-1.191 2.79-1.801 5.026-1.801 2.15 0 3.719.552 4.853 1.598 1.481 1.365 1.946 3.254 1.946 6.101 0 2.933-.494 4.794-2.034 6.275m-3.312-9.617c-.291-.349-.755-.522-1.453-.522-.842 0-1.365.26-1.627.58-.523.61-.726 1.976-.726 3.574 0 1.684.233 2.933.668 3.398.291.321.814.524 1.511.524.784 0 1.278-.262 1.569-.611.523-.61.755-1.859.755-3.573 0-1.598-.202-2.788-.697-3.37M117.67 24.697c-1.424 1.598-3.341 2.353-5.637 2.353-2.179 0-3.66-.698-4.648-1.772-1.278-1.394-1.742-3.312-1.742-5.753 0-2.411.464-4.677 1.975-6.188 1.074-1.045 2.615-1.743 4.939-1.743 1.83 0 3.66.436 4.91 1.714l-2.557 3.079c-.668-.581-1.453-.813-2.295-.813-1.859 0-2.209 1.134-2.209 3.748 0 2.614.35 3.835 1.859 3.835.988 0 1.918-.494 2.702-1.336l2.703 2.876zM124.437 4.534v12.435h1.103l2.761-5.027h5.375l-4.504 7.118 4.939 7.7h-5.607l-3.108-5.433h-.959v5.433h-4.562V4.534zM146.572 24.697c-1.424 1.598-3.341 2.353-5.637 2.353-2.178 0-3.66-.698-4.648-1.772-1.277-1.394-1.742-3.312-1.742-5.753 0-2.411.465-4.677 1.975-6.188 1.075-1.045 2.616-1.743 4.939-1.743 1.83 0 3.66.436 4.91 1.714l-2.557 3.079c-.668-.581-1.453-.813-2.295-.813-1.859 0-2.209 1.134-2.209 3.748 0 2.614.35 3.835 1.859 3.835.988 0 1.918-.494 2.702-1.336l2.703 2.876zM153.339 4.534v9.268c.755-1.307 2.208-2.237 4.184-2.237 2.731 0 4.271 1.86 4.271 5.287v9.908h-4.59v-9.268c0-1.134-.232-1.714-1.075-1.714-1.365 0-2.789 1.482-2.789 5.084v5.898h-4.562V4.534h4.561zM164.579 13.743c1.511-1.627 3.544-2.121 5.927-2.121 4.184 0 6.159 1.511 6.159 5.695v9.442h-3.864l-.028-1.889c-1.075 1.57-2.615 2.267-4.3 2.267-1.395 0-2.499-.465-3.254-1.162-.872-.814-1.308-1.918-1.308-3.429 0-1.801.639-3.021 1.83-3.835 1.278-.871 3.196-1.191 5.171-1.191h1.569v-.377c0-1.627-.552-2.121-2.179-2.121-1.424 0-2.527.378-3.486 1.307l-2.237-2.586zm6.13 6.683c-1.598 0-2.527.203-2.527 1.917 0 .93.262 1.481 1.046 1.481 1.22 0 3.138-1.335 3.341-3.398h-1.86zM182.153 4.33c1.54 0 2.673 1.162 2.673 2.731s-1.133 2.702-2.673 2.702c-1.511 0-2.673-1.162-2.673-2.702 0-1.539 1.163-2.731 2.673-2.731m2.295 22.429h-4.562V11.942h4.562v14.817zM192.029 11.942v2.267c.9-1.657 2.382-2.644 4.416-2.644 2.876 0 4.357 1.917 4.357 5.287v9.907h-4.59v-9.18c0-1.192-.232-1.801-1.104-1.801-1.452 0-2.76 1.627-2.76 5.025v5.956h-4.562V11.942h4.243z"/><path fill="#C2C3CF" d="M66.982 35.497v3.568h2.912v-3.568h2.158v9.254h-2.158v-3.755h-2.912v3.755H64.81v-9.254zM81.691 43.92c-.63.616-1.555 1.032-2.977 1.032-1.395 0-2.334-.39-2.937-1.021-.792-.817-1.047-2.051-1.047-3.713 0-1.664.255-3.006 1.141-3.891.617-.617 1.542-1.033 2.964-1.033 1.421 0 2.347.402 2.951 1.02.791.805 1.046 2.066 1.046 3.729 0 1.678-.255 2.992-1.141 3.877m-1.649-6.344c-.242-.269-.657-.442-1.221-.442-.603 0-1.032.174-1.314.51-.349.429-.469 1.113-.469 2.494 0 1.328.107 2.133.483 2.549.241.269.643.429 1.22.429.617 0 1.032-.174 1.314-.509.349-.43.47-1.127.47-2.481 0-1.383-.121-2.149-.483-2.55M87.682 35.497v7.323h3.179v1.931h-5.352v-9.254zM96.933 35.497c1.302 0 2.173.322 2.737.858.804.778 1.032 1.999 1.032 3.662 0 1.582-.201 3.004-1.14 3.876-.577.535-1.421.859-2.561.859h-3.703v-9.256h3.635zm-1.448 7.363h1.328c.563 0 .965-.146 1.22-.441.309-.35.416-.994.416-2.308 0-1.288-.107-1.958-.429-2.319-.242-.27-.604-.404-1.194-.404h-1.341v5.472zM103.379 35.497h2.174v9.255h-2.174zM111.344 35.497l2.951 6.316-.066-6.316h2.078v9.254h-2.749l-2.951-6.317.067 6.317h-2.079v-9.254zM126.335 39.48v4.802a8.233 8.233 0 0 1-3.165.604c-1.516 0-2.469-.361-3.125-1.006-.898-.871-1.061-2.172-1.061-3.635 0-1.689.229-3.031 1.113-3.89.631-.616 1.57-.992 3.059-.992 1.261 0 2.348.269 3.098.966l-1.246 1.529c-.497-.416-1.168-.617-1.959-.617-.764 0-1.141.174-1.381.456-.295.349-.402.925-.402 2.414 0 1.677.133 2.267.441 2.601.256.283.658.416 1.369.416.455 0 .951-.053 1.301-.16v-1.743h-1.529V39.48h3.487zM133.922 37.709c-.562-.389-1.381-.536-1.945-.536-.656 0-1.086.175-1.086.897 0 1.41 4.252.578 4.252 3.931 0 1.073-.51 1.824-1.167 2.269-.63.428-1.503.643-2.401.643-.979 0-2.307-.241-3.058-.926l1.073-1.596c.604.482 1.502.684 2.199.684.631 0 1.154-.161 1.154-.967 0-1.594-4.252-.683-4.252-3.982 0-.979.429-1.609 1.046-2.064.671-.498 1.489-.726 2.413-.726.887 0 2.08.215 2.791.806l-1.019 1.567zM143.613 35.497v7.323h3.179v1.931h-5.352v-9.254zM154.006 35.497v1.931h-2.375v7.323h-2.172v-7.323h-2.361v-1.931zM159.876 35.497c1.301 0 2.173.322 2.736.858.805.778 1.033 1.999 1.033 3.662 0 1.582-.201 3.004-1.141 3.876-.576.535-1.422.859-2.562.859h-3.703v-9.256h3.637zm-1.448 7.363h1.328c.562 0 .965-.146 1.22-.441.308-.35.416-.994.416-2.308 0-1.288-.108-1.958-.429-2.319-.242-.27-.604-.404-1.193-.404h-1.342v5.472zM166.806 42.337c.725 0 1.261.536 1.261 1.274 0 .724-.536 1.273-1.261 1.273-.724 0-1.272-.55-1.272-1.273-.001-.737.534-1.274 1.272-1.274"/><path fill="#0A1437" d="M35.96.027L20.4 9.01l5.534 3.195 10.026-5.79 10.483 6.052 6.076-2.791.039-.067z"/><path fill="#488ECC" d="M17.98 10.4L5.532 17.586V0L0 3.194v38.347l17.98 10.381 17.98-10.381v-20.76L17.98 10.4zm12.448 27.948L17.98 45.534 5.532 38.348V23.975l12.448-7.188 12.448 7.188v14.373z"/><path fill="#0A1437" d="M38.381 40.152l13.882-8.015-6.74-2.498-7.142 4.125zM28.008 30.57l-4.495-2.596v-5.189l-5.532-3.194v11.577l10.027 5.791z"/></svg>