<svg xmlns="http://www.w3.org/2000/svg" width="200.803" height="51.922" viewBox="0 0 200.803 51.922"><path fill="#FFF" d="M73.285 6.713c1.772 0 3.312.349 4.358 1.162 1.017.755 1.627 1.917 1.627 3.66 0 2.237-1.017 4.068-3.283 4.678 2.614.465 3.66 2.121 3.66 4.619 0 2.179-.813 3.604-1.946 4.503-1.278 1.018-2.992 1.424-4.91 1.424h-7.903V6.713h8.397zm-3.835 8.192h2.15c1.627 0 2.789-.494 2.789-2.527 0-.843-.204-1.308-.494-1.568-.291-.263-.813-.35-1.453-.35H69.45v4.445zm0 8.135h2.789c.843 0 1.482-.146 1.889-.521.406-.379.638-.989.638-1.948 0-1.743-.784-2.178-2.353-2.178H69.45v4.647zM82.375 4.533h4.562v22.226h-4.562zM101.461 25.451c-1.22 1.162-2.76 1.743-4.997 1.743-2.179 0-3.69-.552-4.823-1.598-1.511-1.365-1.975-3.196-1.975-6.043 0-2.992.523-4.822 2.004-6.275 1.22-1.191 2.79-1.802 5.026-1.802 2.15 0 3.719.553 4.853 1.599 1.481 1.365 1.946 3.254 1.946 6.101 0 2.934-.494 4.794-2.034 6.275m-3.312-9.616c-.291-.349-.755-.522-1.453-.522-.842 0-1.365.261-1.627.58-.523.61-.726 1.977-.726 3.574 0 1.685.233 2.934.668 3.398.291.32.814.523 1.511.523.784 0 1.278-.262 1.569-.61.523-.61.755-1.859.755-3.573 0-1.598-.202-2.789-.697-3.37M117.67 24.696c-1.424 1.598-3.341 2.353-5.637 2.353-2.179 0-3.66-.697-4.648-1.771-1.278-1.395-1.742-3.312-1.742-5.753 0-2.411.464-4.677 1.975-6.188 1.074-1.045 2.615-1.742 4.939-1.742 1.83 0 3.66.436 4.91 1.714l-2.557 3.079c-.668-.581-1.453-.813-2.295-.813-1.859 0-2.209 1.134-2.209 3.748s.35 3.835 1.859 3.835c.988 0 1.918-.494 2.702-1.336l2.703 2.874zM124.437 4.533v12.435h1.103l2.761-5.027h5.375l-4.504 7.119 4.939 7.699h-5.607l-3.108-5.433h-.959v5.433h-4.562V4.533zM146.572 24.696c-1.424 1.598-3.341 2.353-5.637 2.353-2.178 0-3.66-.697-4.648-1.771-1.277-1.395-1.742-3.312-1.742-5.753 0-2.411.465-4.677 1.975-6.188 1.075-1.045 2.616-1.742 4.939-1.742 1.83 0 3.66.436 4.91 1.714l-2.557 3.079c-.668-.581-1.453-.813-2.295-.813-1.859 0-2.209 1.134-2.209 3.748s.35 3.835 1.859 3.835c.988 0 1.918-.494 2.702-1.336l2.703 2.874zM153.339 4.533v9.268c.755-1.307 2.208-2.236 4.184-2.236 2.731 0 4.271 1.859 4.271 5.287v9.907h-4.59v-9.268c0-1.134-.232-1.714-1.075-1.714-1.365 0-2.789 1.481-2.789 5.084v5.897h-4.562V4.533h4.561zM164.579 13.743c1.511-1.627 3.544-2.121 5.927-2.121 4.184 0 6.159 1.511 6.159 5.694v9.442h-3.864l-.028-1.889c-1.075 1.569-2.615 2.267-4.3 2.267-1.395 0-2.499-.465-3.254-1.162-.872-.813-1.308-1.918-1.308-3.429 0-1.801.639-3.021 1.83-3.835 1.278-.871 3.196-1.191 5.171-1.191h1.569v-.377c0-1.627-.552-2.121-2.179-2.121-1.424 0-2.527.378-3.486 1.308l-2.237-2.586zm6.13 6.683c-1.598 0-2.527.203-2.527 1.917 0 .93.262 1.481 1.046 1.481 1.22 0 3.138-1.335 3.341-3.398h-1.86zM182.153 4.33c1.54 0 2.673 1.162 2.673 2.73 0 1.569-1.133 2.702-2.673 2.702-1.511 0-2.673-1.162-2.673-2.702 0-1.539 1.163-2.73 2.673-2.73m2.295 22.429h-4.562V11.941h4.562v14.818zM192.029 11.941v2.267c.9-1.656 2.382-2.644 4.416-2.644 2.876 0 4.357 1.917 4.357 5.287v9.907h-4.59v-9.181c0-1.191-.232-1.801-1.104-1.801-1.452 0-2.76 1.627-2.76 5.025v5.956h-4.562V11.941h4.243zM66.982 35.496v3.568h2.912v-3.568h2.158v9.255h-2.158v-3.756h-2.912v3.756H64.81v-9.255zM81.691 43.919c-.63.617-1.555 1.033-2.977 1.033-1.395 0-2.334-.389-2.937-1.02-.792-.818-1.047-2.052-1.047-3.715 0-1.664.255-3.005 1.141-3.89.617-.617 1.542-1.033 2.964-1.033 1.421 0 2.347.402 2.951 1.02.791.805 1.046 2.065 1.046 3.729 0 1.677-.255 2.991-1.141 3.876m-1.649-6.344c-.242-.269-.657-.442-1.221-.442-.603 0-1.032.174-1.314.51-.349.429-.469 1.113-.469 2.494 0 1.328.107 2.133.483 2.549.241.269.643.429 1.22.429.617 0 1.032-.174 1.314-.509.349-.43.47-1.127.47-2.481 0-1.383-.121-2.147-.483-2.55M87.682 35.496v7.323h3.179v1.932h-5.352v-9.255zM96.933 35.496c1.302 0 2.173.322 2.737.858.804.778 1.032 1.999 1.032 3.662 0 1.582-.201 3.004-1.14 3.876-.577.536-1.421.858-2.561.858h-3.703v-9.255h3.635zm-1.448 7.363h1.328c.563 0 .965-.147 1.22-.442.309-.349.416-.992.416-2.307 0-1.288-.107-1.958-.429-2.32-.242-.269-.604-.402-1.194-.402h-1.341v5.471zM103.379 35.496h2.174v9.255h-2.174zM111.344 35.496l2.951 6.317-.066-6.317h2.078v9.255h-2.749l-2.951-6.317.067 6.317h-2.079v-9.255zM126.335 39.479v4.802a8.233 8.233 0 0 1-3.165.604c-1.516 0-2.469-.361-3.125-1.006-.898-.871-1.061-2.173-1.061-3.635 0-1.689.229-3.031 1.113-3.89.631-.616 1.57-.992 3.059-.992 1.261 0 2.348.269 3.098.966l-1.246 1.529c-.497-.416-1.168-.617-1.959-.617-.764 0-1.141.174-1.381.456-.295.349-.402.925-.402 2.414 0 1.677.133 2.267.441 2.602.256.282.658.416 1.369.416.455 0 .951-.054 1.301-.161v-1.743h-1.529V39.48h3.487zM133.922 37.709c-.562-.389-1.381-.536-1.945-.536-.656 0-1.086.175-1.086.898 0 1.409 4.252.577 4.252 3.93 0 1.073-.51 1.824-1.167 2.268-.63.429-1.503.644-2.401.644-.979 0-2.307-.241-3.058-.926l1.073-1.596c.604.482 1.502.684 2.199.684.631 0 1.154-.161 1.154-.966 0-1.596-4.252-.684-4.252-3.983 0-.978.429-1.609 1.046-2.065.671-.497 1.489-.725 2.413-.725.887 0 2.08.215 2.791.806l-1.019 1.567zM143.613 35.496v7.323h3.179v1.932h-5.352v-9.255zM154.006 35.496v1.932h-2.375v7.323h-2.172v-7.323h-2.361v-1.932zM159.876 35.496c1.301 0 2.173.322 2.736.858.805.778 1.033 1.999 1.033 3.662 0 1.582-.201 3.004-1.141 3.876-.576.536-1.422.858-2.562.858h-3.703v-9.255h3.637zm-1.448 7.363h1.328c.562 0 .965-.147 1.22-.442.308-.349.416-.992.416-2.307 0-1.288-.108-1.958-.429-2.32-.242-.269-.604-.402-1.193-.402h-1.342v5.471zM166.806 42.337c.725 0 1.261.536 1.261 1.274 0 .724-.536 1.273-1.261 1.273-.724 0-1.272-.55-1.272-1.273-.001-.738.534-1.274 1.272-1.274M35.96.026L20.4 9.01l5.534 3.194 10.026-5.79 10.483 6.053 6.076-2.791.039-.068z"/><path fill="#1D95F4" d="M17.98 10.399L5.532 17.586V0L0 3.193v38.349l17.98 10.38 17.98-10.38V20.78L17.98 10.399zm12.448 27.949L17.98 45.533 5.532 38.348V23.975l12.448-7.188 12.448 7.188v14.373z"/><path fill="#FFF" d="M38.381 40.151l13.882-8.014-6.74-2.497-7.142 4.124zM28.008 30.569l-4.495-2.595v-5.19l-5.532-3.193v11.577l10.027 5.79z"/></svg>